<mxfile host="app.diagrams.net" modified="2021-03-30T17:15:52.536Z" agent="5.0 (Windows NT 10.0; Win64; x64) AppleWebKit/537.36 (KHTML, like Gecko) Chrome/89.0.4389.90 Safari/537.36" etag="F7WckFhJs69J5EY6cjnZ" version="14.5.3" type="github">
  <diagram id="8ICPY_2470kaU-iDRs33" name="Page-1">
    <mxGraphModel dx="1033" dy="922" grid="1" gridSize="10" guides="1" tooltips="1" connect="1" arrows="1" fold="1" page="1" pageScale="1" pageWidth="1169" pageHeight="827" math="0" shadow="0">
      <root>
        <mxCell id="0" />
        <mxCell id="1" parent="0" />
        <mxCell id="5mDpyezBpC3JXyuzYrch-2" style="edgeStyle=orthogonalEdgeStyle;rounded=0;orthogonalLoop=1;jettySize=auto;html=1;" edge="1" parent="1" source="5mDpyezBpC3JXyuzYrch-1">
          <mxGeometry relative="1" as="geometry">
            <mxPoint x="220" y="140" as="targetPoint" />
          </mxGeometry>
        </mxCell>
        <mxCell id="5mDpyezBpC3JXyuzYrch-1" value="&lt;font style=&quot;font-size: 18px&quot;&gt;Home&lt;/font&gt;" style="rounded=0;whiteSpace=wrap;html=1;" vertex="1" parent="1">
          <mxGeometry x="40" y="110" width="120" height="60" as="geometry" />
        </mxCell>
        <mxCell id="5mDpyezBpC3JXyuzYrch-3" value="&lt;span style=&quot;font-size: 18px&quot;&gt;운동시작&lt;/span&gt;" style="rounded=0;whiteSpace=wrap;html=1;" vertex="1" parent="1">
          <mxGeometry x="220" y="110" width="120" height="60" as="geometry" />
        </mxCell>
        <mxCell id="5mDpyezBpC3JXyuzYrch-8" style="edgeStyle=orthogonalEdgeStyle;rounded=0;orthogonalLoop=1;jettySize=auto;html=1;" edge="1" parent="1">
          <mxGeometry relative="1" as="geometry">
            <mxPoint x="400" y="140" as="targetPoint" />
            <mxPoint x="340" y="140" as="sourcePoint" />
          </mxGeometry>
        </mxCell>
        <mxCell id="5mDpyezBpC3JXyuzYrch-9" value="&lt;span style=&quot;font-size: 18px&quot;&gt;거리입력&lt;/span&gt;" style="rounded=0;whiteSpace=wrap;html=1;" vertex="1" parent="1">
          <mxGeometry x="400" y="110" width="120" height="60" as="geometry" />
        </mxCell>
        <mxCell id="5mDpyezBpC3JXyuzYrch-10" style="edgeStyle=orthogonalEdgeStyle;rounded=0;orthogonalLoop=1;jettySize=auto;html=1;" edge="1" parent="1">
          <mxGeometry relative="1" as="geometry">
            <mxPoint x="580" y="140" as="targetPoint" />
            <mxPoint x="520" y="140" as="sourcePoint" />
          </mxGeometry>
        </mxCell>
        <mxCell id="5mDpyezBpC3JXyuzYrch-11" value="&lt;span style=&quot;font-size: 18px&quot;&gt;코스제안&lt;/span&gt;" style="rounded=0;whiteSpace=wrap;html=1;" vertex="1" parent="1">
          <mxGeometry x="580" y="110" width="120" height="60" as="geometry" />
        </mxCell>
        <mxCell id="5mDpyezBpC3JXyuzYrch-12" style="edgeStyle=orthogonalEdgeStyle;rounded=0;orthogonalLoop=1;jettySize=auto;html=1;" edge="1" parent="1">
          <mxGeometry relative="1" as="geometry">
            <mxPoint x="760" y="140" as="targetPoint" />
            <mxPoint x="700" y="140" as="sourcePoint" />
          </mxGeometry>
        </mxCell>
        <mxCell id="5mDpyezBpC3JXyuzYrch-21" value="" style="edgeStyle=orthogonalEdgeStyle;rounded=0;orthogonalLoop=1;jettySize=auto;html=1;endArrow=classic;endFill=1;" edge="1" parent="1" source="5mDpyezBpC3JXyuzYrch-13" target="5mDpyezBpC3JXyuzYrch-20">
          <mxGeometry relative="1" as="geometry" />
        </mxCell>
        <mxCell id="5mDpyezBpC3JXyuzYrch-13" value="&lt;span style=&quot;font-size: 18px&quot;&gt;코스 안내&lt;/span&gt;" style="rounded=0;whiteSpace=wrap;html=1;" vertex="1" parent="1">
          <mxGeometry x="760" y="110" width="120" height="60" as="geometry" />
        </mxCell>
        <mxCell id="5mDpyezBpC3JXyuzYrch-15" value="" style="edgeStyle=orthogonalEdgeStyle;rounded=0;orthogonalLoop=1;jettySize=auto;html=1;endArrow=none;endFill=0;" edge="1" parent="1" source="5mDpyezBpC3JXyuzYrch-14" target="5mDpyezBpC3JXyuzYrch-11">
          <mxGeometry relative="1" as="geometry" />
        </mxCell>
        <mxCell id="5mDpyezBpC3JXyuzYrch-16" style="edgeStyle=orthogonalEdgeStyle;rounded=0;orthogonalLoop=1;jettySize=auto;html=1;exitX=0;exitY=0.5;exitDx=0;exitDy=0;entryX=0;entryY=0.75;entryDx=0;entryDy=0;endArrow=classic;endFill=1;" edge="1" parent="1" source="5mDpyezBpC3JXyuzYrch-14" target="5mDpyezBpC3JXyuzYrch-11">
          <mxGeometry relative="1" as="geometry" />
        </mxCell>
        <mxCell id="5mDpyezBpC3JXyuzYrch-14" value="&lt;span style=&quot;font-size: 18px&quot;&gt;선택 확인&lt;/span&gt;" style="rounded=0;whiteSpace=wrap;html=1;" vertex="1" parent="1">
          <mxGeometry x="585" y="30" width="120" height="60" as="geometry" />
        </mxCell>
        <mxCell id="5mDpyezBpC3JXyuzYrch-26" value="" style="edgeStyle=orthogonalEdgeStyle;rounded=0;orthogonalLoop=1;jettySize=auto;html=1;endArrow=classic;endFill=1;" edge="1" parent="1" source="5mDpyezBpC3JXyuzYrch-20" target="5mDpyezBpC3JXyuzYrch-25">
          <mxGeometry relative="1" as="geometry" />
        </mxCell>
        <mxCell id="5mDpyezBpC3JXyuzYrch-20" value="&lt;font style=&quot;font-size: 14px&quot;&gt;1/4지점 안내음&lt;/font&gt;" style="rounded=0;whiteSpace=wrap;html=1;" vertex="1" parent="1">
          <mxGeometry x="760" y="210" width="120" height="60" as="geometry" />
        </mxCell>
        <mxCell id="5mDpyezBpC3JXyuzYrch-30" value="" style="edgeStyle=orthogonalEdgeStyle;rounded=0;orthogonalLoop=1;jettySize=auto;html=1;endArrow=classic;endFill=1;" edge="1" parent="1" source="5mDpyezBpC3JXyuzYrch-25" target="5mDpyezBpC3JXyuzYrch-27">
          <mxGeometry relative="1" as="geometry" />
        </mxCell>
        <mxCell id="5mDpyezBpC3JXyuzYrch-25" value="&lt;font style=&quot;font-size: 14px&quot;&gt;2/4지점 안내음&lt;/font&gt;" style="rounded=0;whiteSpace=wrap;html=1;" vertex="1" parent="1">
          <mxGeometry x="580" y="210" width="120" height="60" as="geometry" />
        </mxCell>
        <mxCell id="5mDpyezBpC3JXyuzYrch-31" value="" style="edgeStyle=orthogonalEdgeStyle;rounded=0;orthogonalLoop=1;jettySize=auto;html=1;endArrow=classic;endFill=1;" edge="1" parent="1" source="5mDpyezBpC3JXyuzYrch-27" target="5mDpyezBpC3JXyuzYrch-28">
          <mxGeometry relative="1" as="geometry" />
        </mxCell>
        <mxCell id="5mDpyezBpC3JXyuzYrch-27" value="&lt;font style=&quot;font-size: 14px&quot;&gt;3/4지점 안내음&lt;/font&gt;" style="rounded=0;whiteSpace=wrap;html=1;" vertex="1" parent="1">
          <mxGeometry x="400" y="210" width="120" height="60" as="geometry" />
        </mxCell>
        <mxCell id="5mDpyezBpC3JXyuzYrch-32" value="" style="edgeStyle=orthogonalEdgeStyle;rounded=0;orthogonalLoop=1;jettySize=auto;html=1;endArrow=classic;endFill=1;" edge="1" parent="1" source="5mDpyezBpC3JXyuzYrch-28" target="5mDpyezBpC3JXyuzYrch-29">
          <mxGeometry relative="1" as="geometry" />
        </mxCell>
        <mxCell id="5mDpyezBpC3JXyuzYrch-28" value="&lt;span style=&quot;font-size: 18px&quot;&gt;완주 안내음&lt;/span&gt;" style="rounded=0;whiteSpace=wrap;html=1;" vertex="1" parent="1">
          <mxGeometry x="220" y="210" width="120" height="60" as="geometry" />
        </mxCell>
        <mxCell id="5mDpyezBpC3JXyuzYrch-29" value="&lt;font style=&quot;font-size: 18px&quot;&gt;운동완료 안내&lt;/font&gt;" style="rounded=0;whiteSpace=wrap;html=1;" vertex="1" parent="1">
          <mxGeometry x="40" y="210" width="120" height="60" as="geometry" />
        </mxCell>
        <mxCell id="5mDpyezBpC3JXyuzYrch-33" value="" style="edgeStyle=orthogonalEdgeStyle;rounded=0;orthogonalLoop=1;jettySize=auto;html=1;endArrow=classic;endFill=1;" edge="1" parent="1" target="5mDpyezBpC3JXyuzYrch-34">
          <mxGeometry relative="1" as="geometry">
            <mxPoint x="100" y="270" as="sourcePoint" />
          </mxGeometry>
        </mxCell>
        <mxCell id="5mDpyezBpC3JXyuzYrch-36" style="edgeStyle=orthogonalEdgeStyle;rounded=0;orthogonalLoop=1;jettySize=auto;html=1;entryX=0.5;entryY=0;entryDx=0;entryDy=0;endArrow=none;endFill=0;" edge="1" parent="1" source="5mDpyezBpC3JXyuzYrch-34" target="5mDpyezBpC3JXyuzYrch-35">
          <mxGeometry relative="1" as="geometry" />
        </mxCell>
        <mxCell id="5mDpyezBpC3JXyuzYrch-34" value="운동량/거리/시간 안내" style="rounded=0;whiteSpace=wrap;html=1;" vertex="1" parent="1">
          <mxGeometry x="25" y="310" width="150" height="20" as="geometry" />
        </mxCell>
        <mxCell id="5mDpyezBpC3JXyuzYrch-35" value="코스 그림 안내" style="rounded=0;whiteSpace=wrap;html=1;" vertex="1" parent="1">
          <mxGeometry x="25" y="350" width="150" height="20" as="geometry" />
        </mxCell>
        <mxCell id="5mDpyezBpC3JXyuzYrch-37" style="edgeStyle=orthogonalEdgeStyle;rounded=0;orthogonalLoop=1;jettySize=auto;html=1;" edge="1" parent="1">
          <mxGeometry relative="1" as="geometry">
            <mxPoint x="235" y="360" as="targetPoint" />
            <mxPoint x="174.9999999999999" y="360" as="sourcePoint" />
          </mxGeometry>
        </mxCell>
        <mxCell id="5mDpyezBpC3JXyuzYrch-38" value="&lt;font style=&quot;font-size: 14px&quot;&gt;로고 선택&lt;/font&gt;" style="rounded=0;whiteSpace=wrap;html=1;" vertex="1" parent="1">
          <mxGeometry x="235" y="350" width="120" height="20" as="geometry" />
        </mxCell>
        <mxCell id="5mDpyezBpC3JXyuzYrch-39" style="edgeStyle=orthogonalEdgeStyle;rounded=0;orthogonalLoop=1;jettySize=auto;html=1;" edge="1" parent="1">
          <mxGeometry relative="1" as="geometry">
            <mxPoint x="415.0000000000001" y="360.0000000000001" as="targetPoint" />
            <mxPoint x="354.9999999999999" y="360.0000000000001" as="sourcePoint" />
          </mxGeometry>
        </mxCell>
        <mxCell id="5mDpyezBpC3JXyuzYrch-40" value="&lt;font style=&quot;font-size: 14px&quot;&gt;다운로드&lt;/font&gt;" style="rounded=0;whiteSpace=wrap;html=1;" vertex="1" parent="1">
          <mxGeometry x="415" y="350" width="120" height="20" as="geometry" />
        </mxCell>
      </root>
    </mxGraphModel>
  </diagram>
</mxfile>
